HIERARCHY
ROOT Hips
{
	OFFSET 0.000000 0.000000 0.000000
	CHANNELS 6 Xposition Yposition Zposition Zrotation Yrotation Xrotation 
	JOINT LHipJoint
	{
		OFFSET 0.000000 0.000000 0.000000
		CHANNELS 3 Zrotation Yrotation Xrotation
		JOINT LeftUpLeg
		{
			OFFSET 1.363060 -1.794630 0.839290
			CHANNELS 3 Zrotation Yrotation Xrotation
			JOINT LeftLeg
			{
				OFFSET 2.448110 -6.726130 0.000000
				CHANNELS 3 Zrotation Yrotation Xrotation
				JOINT LeftFoot
				{
					OFFSET 2.562200 -7.039590 0.000000
					CHANNELS 3 Zrotation Yrotation Xrotation
					JOINT LeftToeBase
					{
						OFFSET 0.157640 -0.433110 2.322550
						CHANNELS 3 Zrotation Yrotation Xrotation
						End Site
						{
							OFFSET 0.000000 0.000000 0.000000
						}
					}
				}
			}
		}
	}
	JOINT RHipJoint
	{
		OFFSET 0.000000 0.000000 0.000000
		CHANNELS 3 Zrotation Yrotation Xrotation
		JOINT RightUpLeg
		{
			OFFSET -1.305520 -1.794630 0.839290
			CHANNELS 3 Zrotation Yrotation Xrotation
			JOINT RightLeg
			{
				OFFSET -2.542530 -6.985550 0.000000
				CHANNELS 3 Zrotation Yrotation Xrotation
				JOINT RightFoot
				{
					OFFSET -2.568260 -7.056230 0.000000
					CHANNELS 3 Zrotation Yrotation Xrotation
					JOINT RightToeBase
					{
						OFFSET -0.164730 -0.452590 2.363150
						CHANNELS 3 Zrotation Yrotation Xrotation
						End Site
						{
							OFFSET 0.000000 0.000000 0.000000
						}
					}
				}
			}
		}
	}
	JOINT LowerBack
	{
		OFFSET 0.000000 0.000000 0.000000
		CHANNELS 3 Zrotation Yrotation Xrotation
		JOINT Spine
		{
			OFFSET 0.028270 2.035590 -0.193380
			CHANNELS 3 Zrotation Yrotation Xrotation
			JOINT Spine1
			{
				OFFSET 0.056720 2.048850 -0.042750
				CHANNELS 3 Zrotation Yrotation Xrotation
				JOINT Neck
				{
					OFFSET 0.000000 0.000000 0.000000
					CHANNELS 3 Zrotation Yrotation Xrotation
					JOINT Neck1
					{
						OFFSET -0.054170 1.746240 0.172020
						CHANNELS 3 Zrotation Yrotation Xrotation
						JOINT Head
						{
							OFFSET 0.104070 1.761360 -0.123970
							CHANNELS 3 Zrotation Yrotation Xrotation
							End Site
							{
								OFFSET 0.000000 0.000000 0.000000
							}
						}
					}
				}
				JOINT LeftShoulder
				{
					OFFSET 0.000000 0.000000 0.000000
					CHANNELS 3 Zrotation Yrotation Xrotation
					JOINT LeftArm
					{
						OFFSET 3.362410 1.200890 -0.311210
						CHANNELS 3 Zrotation Yrotation Xrotation
						JOINT LeftForeArm
						{
							OFFSET 4.983000 -0.000000 -0.000000
							CHANNELS 3 Zrotation Yrotation Xrotation
							JOINT LeftHand
							{
								OFFSET 3.483560 -0.000000 -0.000000
								CHANNELS 3 Zrotation Yrotation Xrotation
								JOINT LeftFingerBase
								{
									OFFSET 0.000000 0.000000 0.000000
									CHANNELS 3 Zrotation Yrotation Xrotation
									JOINT LeftHandIndex1
									{
										OFFSET 0.715260 -0.000000 -0.000000
										CHANNELS 3 Zrotation Yrotation Xrotation
										End Site
										{
											OFFSET 0.000000 0.000000 0.000000
										}
									}
								}
								JOINT LThumb
								{
									OFFSET 0.000000 0.000000 0.000000
									CHANNELS 3 Zrotation Yrotation Xrotation
									End Site
									{
										OFFSET 0.000000 0.000000 0.000000
									}
								}
							}
						}
					}
				}
				JOINT RightShoulder
				{
					OFFSET 0.000000 0.000000 0.000000
					CHANNELS 3 Zrotation Yrotation Xrotation
					JOINT RightArm
					{
						OFFSET -3.136600 1.374050 -0.404650
						CHANNELS 3 Zrotation Yrotation Xrotation
						JOINT RightForeArm
						{
							OFFSET -5.241900 -0.000000 -0.000000
							CHANNELS 3 Zrotation Yrotation Xrotation
							JOINT RightHand
							{
								OFFSET -3.444170 -0.000000 -0.000000
								CHANNELS 3 Zrotation Yrotation Xrotation
								JOINT RightFingerBase
								{
									OFFSET 0.000000 0.000000 0.000000
									CHANNELS 3 Zrotation Yrotation Xrotation
									JOINT RightHandIndex1
									{
										OFFSET -0.622530 -0.000000 -0.000000
										CHANNELS 3 Zrotation Yrotation Xrotation
										End Site
										{
											OFFSET 0.000000 0.000000 0.000000
										}
									}
								}
								JOINT RThumb
								{
									OFFSET 0.000000 0.000000 0.000000
									CHANNELS 3 Zrotation Yrotation Xrotation
									End Site
									{
										OFFSET 0.000000 0.000000 0.000000
									}
								}
							}
						}
					}
				}
			}
		}
	}
}
MOTION
Frames: 11
Frame Time: 0.008333
48.053270 17.355052 -4.788510 -47.690311 85.437900 -21.767553 3.205686 -0.416736 -1.174621 -19.751271 -1.758509 -30.322560 -0.452461 5.504810 13.518561 0.708137 -1.281162 3.681450 0.232700 -3.104700 -8.570400 -3.237686 0.787488 -1.003436 19.365983 18.939030 -33.935881 -1.119439 -10.751954 26.652247 1.480112 -10.237247 -9.006525 -0.148700 -2.484700 6.847300 3.927138 -1.446123 17.003984 1.264902 -0.846003 -0.116089 -2.920768 -0.304375 -2.500293 -0.577930 1.892186 -0.163296 5.958956 1.884586 -8.542169 0.152800 0.440400 -6.251500 -5.090482 -6.182458 1.873351 -76.936876 -0.937492 28.678770 18.908509 -29.680467 -6.440759 -0.947514 -1.134648 -27.885982 19.019755 11.441132 4.394400 -7.125000 0.000000 0.000000 -6.156100 42.603200 0.365600 6.886147 4.584619 1.388718 76.668610 2.311100 30.834507 -14.163356 25.263439 -4.007224 1.169678 -0.135743 -0.307834 -21.318142 -8.025133 3.219900 7.125000 0.000000 0.000000 3.744300 -38.399500 0.609700 
48.054097 17.355155 -4.789131 -47.773456 85.448800 -21.848750 3.205923 -0.417308 -1.174686 -19.737169 -1.796086 -30.313361 -0.451563 5.508856 13.527775 0.705667 -1.264433 3.684087 0.224500 -3.050000 -8.417900 -3.238094 0.788146 -1.003777 19.352780 18.968133 -33.922635 -1.119111 -10.750739 26.647697 1.489529 -10.283471 -9.036648 -0.150300 -2.498100 6.884400 3.928575 -1.447288 16.998046 1.263382 -0.848207 -0.114456 -2.930303 -0.305026 -2.499482 -0.567423 1.899844 -0.132218 5.957210 1.895739 -8.559718 0.150400 0.444100 -6.268700 -5.091667 -6.182765 1.875968 -76.924874 -0.964071 28.690696 18.913590 -29.683071 -6.441632 -0.948062 -1.128158 -27.892465 19.047825 11.340526 4.362000 -7.125000 0.000000 0.000000 -6.114700 42.494200 0.379600 6.883726 4.583081 1.389775 76.687121 2.319649 30.847595 -14.176252 25.278321 -4.012121 1.170884 -0.131497 -0.327623 -21.288478 -8.092926 3.244500 7.125000 0.000000 0.000000 3.776200 -38.474200 0.608000 
48.056476 17.355155 -4.789751 -47.822125 85.438610 -21.903966 3.204851 -0.416472 -1.174607 -19.740247 -1.763870 -30.307094 -0.452146 5.506579 13.524423 0.710022 -1.291566 3.692109 0.225500 -3.056400 -8.435800 -3.238277 0.787534 -1.003135 19.368815 18.962367 -33.905589 -1.119813 -10.751703 26.653006 1.484020 -10.258338 -9.037071 -0.151000 -2.503700 6.899800 3.934550 -1.444249 16.986834 1.261697 -0.845072 -0.115672 -2.938841 -0.303329 -2.509247 -0.570564 1.917894 -0.080310 5.958444 1.918512 -8.558490 0.152200 0.454600 -6.282200 -5.094049 -6.182186 1.877751 -76.904771 -0.951734 28.696934 18.927926 -29.699634 -6.450146 -0.947094 -1.132294 -27.918071 19.037301 11.383285 4.376500 -7.125000 0.000000 0.000000 -6.130800 42.541600 0.373400 6.880732 4.580808 1.390185 76.692211 2.309181 30.891086 -14.185895 25.291480 -4.015221 1.171263 -0.128459 -0.352018 -21.264451 -8.129533 3.256700 7.125000 0.000000 0.000000 3.800700 -38.514600 0.608100 
48.058027 17.355155 -4.790475 -47.856307 85.451996 -21.940382 3.204872 -0.416113 -1.174372 -19.753761 -1.765340 -30.298963 -0.452452 5.505941 13.522641 0.710258 -1.294536 3.687028 0.229300 -3.082000 -8.507300 -3.238404 0.787593 -1.003184 19.356235 18.964160 -33.900922 -1.120675 -10.752759 26.656768 1.486058 -10.267845 -9.041930 -0.149300 -2.490100 6.862200 3.934787 -1.447710 16.978182 1.260965 -0.850232 -0.116406 -2.946012 -0.305804 -2.503552 -0.550468 1.921495 -0.098090 5.948518 1.922927 -8.538664 0.141600 0.455800 -6.268700 -5.091992 -6.181524 1.877319 -76.899085 -0.955896 28.691626 18.957976 -29.729146 -6.465448 -0.945251 -1.132402 -27.917971 19.016975 11.382415 4.371500 -7.125000 0.000000 0.000000 -6.150500 42.539600 0.374900 6.880354 4.581682 1.389634 76.699257 2.316280 30.906250 -14.199170 25.305569 -4.019768 1.170716 -0.128023 -0.352362 -21.252299 -8.135742 3.257300 7.125000 0.000000 0.000000 3.812400 -38.520900 0.609400 
48.059889 17.355155 -4.791096 -47.889045 85.457007 -21.976573 3.204616 -0.415684 -1.174088 -19.758163 -1.767283 -30.286559 -0.452632 5.504781 13.520127 0.710404 -1.296006 3.683480 0.230100 -3.087300 -8.521900 -3.238550 0.787443 -1.002904 19.352092 18.966634 -33.890694 -1.121446 -10.753755 26.660834 1.485438 -10.266236 -9.051385 -0.149300 -2.489700 6.861100 3.935757 -1.447062 16.968398 1.260341 -0.850116 -0.117418 -2.950527 -0.305847 -2.503442 -0.541569 1.926444 -0.092321 5.940621 1.928038 -8.524839 0.135000 0.457800 -6.264200 -5.090857 -6.181021 1.877466 -76.892720 -0.957079 28.694980 18.979989 -29.751359 -6.476784 -0.944146 -1.132831 -27.927506 19.008555 11.383557 4.370100 -7.125000 0.000000 0.000000 -6.158900 42.540700 0.375300 6.879518 4.581553 1.389265 76.703870 2.314636 30.925114 -14.212808 25.321150 -4.024733 1.170761 -0.126216 -0.362422 -21.235974 -8.159660 3.265100 7.125000 0.000000 0.000000 3.829100 -38.547100 0.609600 
48.061751 17.355155 -4.791820 -47.920142 85.460403 -22.012388 3.204255 -0.415133 -1.173739 -19.761355 -1.770920 -30.269976 -0.452855 5.502608 13.514765 0.709471 -1.291635 3.676192 0.231800 -3.099000 -8.554500 -3.238700 0.787218 -1.002549 19.350183 18.967005 -33.879910 -1.122387 -10.755018 26.665966 1.484125 -10.260895 -9.060030 -0.148800 -2.486000 6.850900 3.937765 -1.444488 16.959545 1.259944 -0.847205 -0.118662 -2.954213 -0.304524 -2.502619 -0.533665 1.927743 -0.094785 5.930973 1.927888 -8.505994 0.127800 0.457600 -6.255000 -5.089072 -6.180430 1.877084 -76.888781 -0.957803 28.700766 19.003242 -29.774630 -6.488562 -0.942942 -1.133412 -27.935383 18.997667 11.388592 4.369600 -7.125000 0.000000 0.000000 -6.170300 42.545900 0.375200 6.879352 4.581949 1.388619 76.704566 2.311549 30.942571 -14.227231 25.337542 -4.030074 1.170661 -0.124824 -0.376459 -21.223802 -8.174241 3.269500 7.125000 0.000000 0.000000 3.841300 -38.563000 0.610100 
48.063612 17.355052 -4.792544 -47.971407 85.462437 -22.068998 3.204070 -0.414584 -1.173275 -19.760482 -1.778417 -30.254351 -0.452336 5.502807 13.515942 0.707927 -1.284289 3.663158 0.233800 -3.111800 -8.590200 -3.238766 0.786988 -1.002224 19.350819 18.967424 -33.866745 -1.122705 -10.755068 26.667659 1.483366 -10.257968 -9.066646 -0.148300 -2.481900 6.839500 3.941255 -1.441297 16.951611 1.259998 -0.842995 -0.119998 -2.956675 -0.302748 -2.500997 -0.525784 1.924689 -0.104436 5.920310 1.921632 -8.484292 0.119900 0.454700 -6.242500 -5.086697 -6.179828 1.876322 -76.886584 -0.959587 28.706803 19.026646 -29.797967 -6.500519 -0.941958 -1.133922 -27.940440 18.989648 11.395359 4.370300 -7.125000 0.000000 0.000000 -6.179400 42.553000 0.374700 6.879933 4.582790 1.387781 76.701801 2.307968 30.961760 -14.242053 25.354176 -4.035408 1.170234 -0.123833 -0.397689 -21.212975 -8.176693 3.268900 7.125000 0.000000 0.000000 3.851400 -38.565700 0.611500 
48.065578 17.354948 -4.793371 -48.047649 85.461564 -22.151571 3.203757 -0.413927 -1.172719 -19.756059 -1.783625 -30.239345 -0.451606 5.503942 13.519595 0.706654 -1.278556 3.648851 0.235200 -3.121600 -8.617400 -3.238844 0.786684 -1.001892 19.357294 18.964160 -33.852173 -1.122848 -10.754604 26.668242 1.482334 -10.253095 -9.069923 -0.147900 -2.478000 6.828500 3.947248 -1.437295 16.945320 1.260178 -0.837282 -0.121516 -2.959997 -0.300181 -2.500465 -0.517188 1.920011 -0.115072 5.909392 1.913353 -8.463161 0.112000 0.450800 -6.229900 -5.084299 -6.179328 1.875535 -76.882656 -0.961404 28.713484 19.047833 -29.818990 -6.511327 -0.941255 -1.134379 -27.945447 18.985604 11.401331 4.371600 -7.125000 0.000000 0.000000 -6.184500 42.559500 0.374000 6.880723 4.583885 1.386803 76.698474 2.301808 30.984061 -14.258653 25.372851 -4.041386 1.169622 -0.122954 -0.424463 -21.202145 -8.174033 3.266100 7.125000 0.000000 0.000000 3.861000 -38.562400 0.613300 
48.067336 17.354845 -4.793992 -48.140229 85.459202 -22.251332 3.203421 -0.413247 -1.172187 -19.749476 -1.787028 -30.225674 -0.450609 5.506056 13.525899 0.705619 -1.274609 3.633611 0.236900 -3.132200 -8.647100 -3.238969 0.786394 -1.001611 19.366956 18.961047 -33.836683 -1.122849 -10.753820 26.667940 1.482261 -10.252473 -9.070693 -0.146800 -2.468700 6.802900 3.953322 -1.433235 16.941221 1.260435 -0.831211 -0.122811 -2.962904 -0.297465 -2.500982 -0.508801 1.916542 -0.122887 5.900160 1.907103 -8.446242 0.105000 0.447800 -6.220000 -5.082338 -6.179084 1.875036 -76.876544 -0.964702 28.718302 19.065963 -29.837037 -6.520718 -0.940825 -1.134495 -27.948338 18.985201 11.402473 4.372000 -7.125000 0.000000 0.000000 -6.185300 42.560800 0.373800 6.881580 4.584870 1.385974 76.693786 2.295628 31.011300 -14.275870 25.392009 -4.047261 1.168548 -0.122112 -0.457133 -21.185489 -8.163725 3.259300 7.125000 0.000000 0.000000 3.875200 -38.550500 0.616700 
48.069094 17.354742 -4.794612 -48.242430 85.456899 -22.360019 3.203053 -0.412550 -1.171501 -19.742755 -1.787856 -30.215573 -0.449606 5.508733 13.534040 0.705457 -1.276080 3.621684 0.237700 -3.137900 -8.663000 -3.239122 0.786138 -1.001207 19.377094 18.958442 -33.822228 -1.122854 -10.752955 26.667146 1.482354 -10.252949 -9.071654 -0.146100 -2.463200 6.787700 3.959806 -1.429849 16.937721 1.260413 -0.826313 -0.124759 -2.967971 -0.295400 -2.503864 -0.496485 1.913108 -0.130913 5.891338 1.901200 -8.430163 0.097500 0.444500 -6.210100 -5.080541 -6.179022 1.874568 -76.866074 -0.965688 28.721539 19.082219 -29.853259 -6.529304 -0.940761 -1.134803 -27.951323 18.990283 11.405675 4.374400 -7.125000 0.000000 0.000000 -6.181300 42.564900 0.372900 6.882017 4.586227 1.384882 76.693534 2.286863 31.037798 -14.295486 25.413730 -4.053960 1.167189 -0.121261 -0.485826 -21.163509 -8.154287 3.251900 7.125000 0.000000 0.000000 3.894400 -38.539100 0.620800 
48.070749 17.354638 -4.795233 -48.342726 85.453799 -22.466824 3.202658 -0.411849 -1.170835 -19.735370 -1.786059 -30.206781 -0.448600 5.511551 13.542478 0.706034 -1.281672 3.611711 0.237900 -3.139200 -8.666600 -3.239306 0.785896 -1.000704 19.387437 18.958928 -33.806706 -1.122760 -10.752029 26.666202 1.482664 -10.254543 -9.075456 -0.145700 -2.460200 6.779400 3.964911 -1.426862 16.935125 1.260318 -0.822038 -0.126797 -2.972724 -0.293564 -2.508519 -0.483156 1.912083 -0.134655 5.882462 1.898846 -8.417711 0.089800 0.442700 -6.203100 -5.079183 -6.179252 1.874383 -76.852796 -0.966379 28.722719 19.094575 -29.865766 -6.536094 -0.940840 -1.135094 -27.953911 18.996051 11.407353 4.376500 -7.125000 0.000000 0.000000 -6.176200 42.567500 0.372200 6.882399 4.587439 1.383967 76.693663 2.280027 31.064297 -14.313479 25.433477 -4.059940 1.165818 -0.120347 -0.509300 -21.138728 -8.147377 3.245200 7.125000 0.000000 0.000000 3.916200 -38.530700 0.625100 
